# xmcd
#
# Track frame offsets: 
#        180
#        17002
#        33086
#        48492
#        68056
#        90961
#        112171
#        128647
#        148950
#        166000
#        176110
#
# Disc length: 2517 seconds
#
# Revision: 0
# Processed by: cddbd v1.5.1PL2 Copyright (c) Steve Scherf et al.
# Submitted via: ExactAudioCopy v0.95b4
#
DISCID=8d09d30b
DTITLE=Professor Longhair - Live: Like You Like Him
DYEAR=1994
DGENRE=Blues
TTITLE0=Big Chief
TTITLE1=Tipitina
TTITLE2=Gone So Long
TTITLE3=How Long Has That Train Been Gone
TTITLE4=Messing Around
TTITLE5=Bald Head
TTITLE6=Her Mind Is Gone
TTITLE7=Doing It
TTITLE8=The Banana Boat Song
TTITLE9=Going To The Mardi Gras
TTITLE10=She Ain't Got No Hair
EXTD=
EXTT0=
EXTT1=
EXTT2=
EXTT3=
EXTT4=
EXTT5=
EXTT6=
EXTT7=
EXTT8=
EXTT9=
EXTT10=
PLAYORDER=
